<?xml version="1.0" standalone="no"?>
<!DOCTYPE svg PUBLIC "-//W3C//DTD SVG 20010904//EN"
 "http://www.w3.org/TR/2001/REC-SVG-20010904/DTD/svg10.dtd">
<svg version="1.0" xmlns="http://www.w3.org/2000/svg"
 width="300.000000pt" height="78.000000pt" viewBox="0 0 300.000000 78.000000"
 preserveAspectRatio="xMidYMid meet">
<metadata>
Created by potrace 1.10, written by Peter Selinger 2001-2011
</metadata>
<g transform="translate(0.000000,78.000000) scale(0.100000,-0.100000)"
fill="#000000" stroke="none">
<path d="M400 393 l0 -388 68 1 c37 1 73 2 79 3 21 2 47 52 53 100 4 39 9 47
29 49 32 5 41 -7 45 -62 5 -73 29 -91 121 -91 l75 -1 0 344 c0 367 -2 387 -51
413 -33 17 -108 13 -138 -8 -45 -33 -49 -34 -79 -8 -54 45 -118 6 -130 -80
-12 -82 -31 -67 -34 27 -3 69 -6 83 -20 86 -17 3 -18 -20 -18 -385z m211 293
c22 -36 24 -67 7 -84 -10 -10 -10 -17 0 -32 11 -18 10 -20 -14 -20 -16 0 -39
13 -60 34 -36 36 -44 78 -24 130 8 23 12 24 41 14 17 -6 39 -25 50 -42z m137
29 c7 -14 12 -42 12 -61 0 -46 -54 -104 -95 -104 -24 0 -26 2 -15 15 11 13 11
20 0 40 -19 36 -2 84 39 112 42 29 45 29 59 -2z m68 -6 c17 -28 22 -79 8 -90
-16 -13 -20 -5 -27 59 -5 40 4 55 19 31z m-255 -161 c49 -40 52 -67 7 -70 -79
-4 -114 7 -137 44 -12 19 -11 24 9 40 34 27 76 23 121 -14z m270 13 l24 -20
-30 -30 c-30 -30 -54 -37 -122 -33 -46 3 -43 32 5 71 44 36 89 40 123 12z
m-165 -99 c25 -23 24 -30 -2 -129 -2 -7 -15 -13 -29 -13 -27 0 -47 32 -37 58
2 7 -1 24 -8 36 -10 20 -9 27 12 48 28 30 34 30 64 0z m-106 -112 l0 -70 75 0
75 0 0 70 0 70 58 0 57 0 0 -190 0 -190 -57 0 -58 0 0 80 0 80 -75 0 -75 0 0
-80 0 -80 -60 0 -60 0 0 190 0 190 60 0 60 0 0 -70z"/>
<path d="M942 758 c-22 -22 -13 -48 23 -69 19 -12 35 -27 35 -35 0 -17 -32
-18 -48 -2 -15 15 -26 4 -19 -17 4 -9 19 -15 40 -15 64 0 78 48 22 81 -19 12
-35 25 -35 30 0 16 29 22 44 10 11 -9 16 -9 21 0 16 25 -59 41 -83 17z"/>
<path d="M1062 693 c2 -46 7 -77 13 -75 6 1 10 16 10 32 0 27 3 30 31 30 28 0
30 -2 26 -30 -3 -23 0 -30 12 -30 13 0 16 13 16 75 0 62 -3 75 -16 75 -12 0
-15 -7 -12 -30 4 -28 2 -30 -27 -30 -29 0 -31 2 -27 30 3 23 0 30 -12 30 -15
0 -16 -11 -14 -77z"/>
<path d="M1210 695 c0 -62 3 -75 16 -75 12 0 14 7 9 30 -5 25 -3 30 12 30 11
0 23 -11 30 -30 6 -16 18 -30 27 -30 20 0 20 5 0 36 -13 19 -14 28 -5 37 14
14 14 50 -1 65 -7 7 -29 12 -50 12 l-38 0 0 -75z m67 44 c17 -17 4 -39 -23
-39 -19 0 -24 5 -24 25 0 27 26 35 47 14z"/>
<path d="M1342 693 c2 -44 7 -78 13 -78 6 0 11 34 13 78 2 65 0 77 -13 77 -13
0 -15 -12 -13 -77z"/>
<path d="M1467 763 c-4 -3 -7 -37 -7 -75 0 -54 3 -68 15 -68 10 0 15 10 15 30
0 21 5 30 16 30 9 0 21 -13 27 -30 6 -16 17 -30 24 -30 16 0 17 15 2 42 -8 14
-8 23 0 31 15 15 14 50 -1 65 -13 13 -80 17 -91 5z m68 -38 c0 -13 -8 -21 -22
-23 -19 -3 -23 1 -23 23 0 22 4 26 23 23 14 -2 22 -10 22 -23z"/>
<path d="M1629 743 c-43 -109 -45 -123 -24 -123 8 0 15 7 15 15 0 10 10 15 30
15 20 0 30 -5 30 -15 0 -8 7 -15 15 -15 19 0 19 1 -7 82 -24 73 -42 85 -59 41z
m29 -67 c-15 -18 -27 7 -16 34 l11 25 7 -25 c4 -14 3 -29 -2 -34z"/>
<path d="M1742 693 c2 -48 7 -76 13 -73 6 3 9 26 9 53 -1 26 0 47 2 47 2 0 10
-13 19 -30 20 -38 29 -38 46 3 l14 32 5 -55 c7 -79 24 -63 28 25 3 67 1 75
-16 75 -11 0 -25 -14 -36 -37 l-18 -38 -19 38 c-11 20 -26 37 -35 37 -12 0
-14 -14 -12 -77z"/>
<path d="M1912 693 c3 -78 20 -107 26 -45 4 40 11 40 37 2 11 -16 26 -30 33
-30 18 0 15 11 -12 45 l-24 30 24 32 c28 37 29 43 10 43 -8 0 -25 -17 -38 -37
l-23 -38 -3 38 c-2 25 -8 37 -18 37 -12 0 -14 -14 -12 -77z"/>
<path d="M2042 693 c3 -78 20 -107 26 -45 4 42 24 41 46 -4 12 -26 20 -34 27
-27 7 7 6 20 -5 41 -14 26 -14 31 -1 42 35 29 2 70 -56 70 l-40 0 3 -77z m73
32 c0 -13 -8 -21 -22 -23 -19 -3 -23 1 -23 23 0 22 4 26 23 23 14 -2 22 -10
22 -23z"/>
<path d="M2179 765 c-5 -48 1 -140 10 -143 7 -2 11 21 11 72 0 44 -4 76 -10
76 -5 0 -10 -2 -11 -5z"/>
<path d="M2247 763 c-4 -3 -7 -19 -7 -36 0 -23 6 -31 30 -40 16 -6 32 -17 35
-24 7 -19 -19 -27 -45 -13 -27 14 -37 6 -20 -15 9 -11 26 -15 49 -13 32 3 36
6 39 33 3 27 -2 33 -33 48 -19 9 -35 21 -35 27 0 17 29 23 45 10 18 -15 30 -7
22 15 -6 15 -67 22 -80 8z"/>
<path d="M2362 693 c3 -78 20 -107 26 -45 3 28 7 32 32 32 25 0 29 -4 32 -32
6 -60 23 -29 26 47 2 62 0 75 -13 75 -10 0 -15 -10 -15 -30 0 -27 -3 -30 -30
-30 -27 0 -30 3 -30 30 0 20 -5 30 -15 30 -13 0 -15 -13 -13 -77z"/>
<path d="M2512 693 c3 -87 20 -102 28 -26 l5 48 30 -47 c43 -69 55 -63 55 27
0 62 -3 75 -16 75 -13 0 -15 -9 -12 -45 2 -25 1 -45 -2 -45 -3 0 -18 20 -33
45 -44 69 -58 61 -55 -32z"/>
<path d="M2682 702 c-26 -81 -26 -82 -7 -82 8 0 15 7 15 15 0 10 10 15 30 15
20 0 30 -5 30 -15 0 -8 7 -15 15 -15 20 0 18 13 -9 85 -31 82 -47 81 -74 -3z
m50 -7 c2 -13 -4 -21 -16 -23 -14 -3 -17 0 -12 13 3 9 6 24 6 33 0 21 17 3 22
-23z"/>
<path d="M934 556 c-10 -26 1 -139 14 -144 9 -3 12 17 12 77 0 49 -4 81 -10
81 -6 0 -13 -6 -16 -14z"/>
<path d="M1000 489 c0 -60 3 -80 13 -76 8 3 11 20 9 51 -2 25 -1 46 1 46 3 0
19 -22 37 -50 47 -74 62 -67 58 27 -4 92 -25 115 -30 31 l-3 -53 -34 53 c-18
28 -37 52 -42 52 -5 0 -9 -36 -9 -81z"/>
<path d="M1166 557 c-24 -18 -17 -58 12 -73 13 -6 29 -17 35 -23 17 -17 -11
-33 -34 -20 -24 12 -29 11 -29 -6 0 -8 11 -17 24 -21 77 -19 102 59 29 87 -13
5 -23 16 -23 25 0 13 7 15 35 10 38 -8 48 7 16 24 -26 13 -43 13 -65 -3z"/>
<path d="M1267 564 c-10 -11 2 -24 24 -24 17 0 19 -7 19 -66 0 -48 3 -65 13
-61 8 2 12 25 12 65 0 58 1 62 23 62 15 0 22 5 20 13 -5 13 -99 23 -111 11z"/>
<path d="M1400 490 c0 -64 3 -80 15 -80 12 0 15 16 15 80 0 64 -3 80 -15 80
-12 0 -15 -16 -15 -80z"/>
<path d="M1457 564 c-13 -13 -7 -24 13 -24 18 0 20 -7 20 -65 0 -51 3 -65 15
-65 12 0 15 14 15 64 0 57 2 65 20 68 12 2 22 8 23 13 2 11 -95 20 -106 9z"/>
<path d="M1590 501 c0 -66 2 -72 24 -82 35 -16 75 -3 87 28 14 38 8 118 -10
118 -10 0 -14 -16 -15 -60 -1 -58 -2 -60 -28 -63 -18 -2 -28 1 -29 10 0 7 -1
35 -2 62 -1 29 -7 51 -14 53 -10 4 -13 -14 -13 -66z"/>
<path d="M1737 563 c-13 -12 -7 -23 13 -23 18 0 20 -7 20 -65 0 -51 3 -65 15
-65 12 0 15 14 15 65 0 58 2 65 20 65 11 0 20 7 20 15 0 11 -12 15 -48 15 -27
0 -52 -3 -55 -7z"/>
<path d="M1864 557 c-3 -8 -4 -43 -2 -78 l3 -64 48 -3 c37 -2 47 0 47 12 0 12
-10 16 -35 16 -28 0 -35 4 -35 20 0 15 7 20 25 20 14 0 25 5 25 10 0 6 -11 10
-25 10 -18 0 -25 5 -25 20 0 16 7 20 36 20 51 0 39 24 -14 28 -29 2 -44 -1
-48 -11z"/>
<path d="M2066 555 c-39 -40 -27 -129 19 -141 58 -15 96 35 80 106 -10 47 -67
67 -99 35z m70 -39 c11 -45 1 -71 -28 -74 -22 -3 -29 2 -34 22 -10 43 3 76 31
76 18 0 26 -7 31 -24z"/>
<path d="M2207 563 c-4 -3 -7 -39 -7 -80 0 -58 3 -73 15 -73 10 0 15 10 15 33
0 28 4 33 21 33 12 -1 24 5 26 12 3 7 -5 12 -21 12 -19 0 -26 5 -26 20 0 16 7
20 30 20 20 0 30 5 30 15 0 11 -11 15 -38 15 -21 0 -42 -3 -45 -7z"/>
<path d="M143 419 c-90 -17 -126 -52 -126 -122 0 -58 32 -84 144 -116 106 -31
128 -51 90 -82 -42 -35 -113 -21 -131 27 -9 21 -15 24 -66 24 l-56 0 7 -32 c4
-18 13 -41 19 -51 16 -27 80 -57 118 -56 l33 1 -32 14 c-18 8 -33 18 -33 23 0
5 -9 11 -20 14 -20 5 -37 33 -27 43 2 3 24 -8 48 -25 46 -32 55 -34 106 -32
37 1 83 44 83 77 0 24 -49 74 -72 74 -19 0 -33 16 -21 23 11 7 95 -22 115 -40
35 -31 21 -103 -25 -124 -12 -6 -38 -19 -57 -29 l-35 -19 38 -1 c98 -1 164 89
126 173 -15 33 -58 56 -152 81 -75 19 -82 23 -82 46 0 23 4 25 47 28 41 3 49
0 64 -22 14 -23 23 -26 70 -26 59 0 61 3 40 55 -25 58 -122 92 -213 74z m137
-54 c29 -15 40 -35 21 -35 -12 0 -69 49 -58 50 4 0 21 -7 37 -15z m-160 -3 c0
-5 -6 -17 -14 -27 -8 -11 -11 -26 -8 -35 9 -25 52 -60 73 -60 12 0 19 -7 18
-17 0 -10 -3 -13 -5 -7 -3 7 -13 10 -23 7 -21 -5 -71 18 -91 42 -23 28 -21 54
5 80 24 25 45 32 45 17z"/>
<path d="M932 283 c2 -50 7 -78 16 -81 8 -3 12 13 13 55 l0 58 16 -32 c21 -41
38 -42 52 -3 15 45 23 36 19 -22 -2 -34 1 -52 10 -55 9 -4 12 16 12 76 0 67
-3 81 -16 81 -8 0 -22 -16 -30 -35 -16 -40 -26 -39 -44 5 -8 19 -20 30 -32 30
-17 0 -19 -7 -16 -77z"/>
<path d="M1110 285 l0 -75 45 0 c25 0 45 5 45 10 0 6 -13 10 -29 10 -38 0 -51
37 -15 42 14 2 25 8 25 13 0 6 -11 11 -25 13 -17 2 -23 8 -19 21 3 13 12 16
34 13 22 -3 29 0 29 12 0 12 -10 16 -45 16 l-45 0 0 -75z"/>
<path d="M1230 285 l0 -75 38 0 c48 0 72 24 72 71 0 53 -23 79 -71 79 l-39 0
0 -75z m61 45 c35 -19 21 -100 -18 -100 -9 0 -13 17 -13 55 0 59 1 60 31 45z"/>
<path d="M1372 283 c2 -44 7 -78 13 -78 6 0 11 34 13 78 2 65 0 77 -13 77 -13
0 -15 -12 -13 -77z"/>
<path d="M1447 342 c-17 -19 -23 -76 -11 -107 9 -24 51 -37 75 -25 29 16 23
28 -13 26 -32 -1 -33 0 -36 43 -4 49 9 64 47 54 17 -4 22 -2 19 8 -7 22 -61
23 -81 1z"/>
<path d="M1587 328 c-32 -76 -39 -110 -28 -121 9 -9 13 -6 17 11 9 31 59 31
68 0 4 -17 8 -20 17 -11 14 14 -29 153 -48 153 -7 0 -19 -15 -26 -32z m37 -40
c5 -24 3 -28 -14 -28 -23 0 -23 0 -10 36 12 31 15 30 24 -8z"/>
<path d="M1700 285 l0 -75 45 0 c25 0 45 5 45 10 0 6 -13 10 -30 10 l-30 0 0
65 c0 51 -3 65 -15 65 -12 0 -15 -15 -15 -75z"/>
<path d="M1883 353 c-7 -2 -13 -18 -13 -34 0 -24 7 -33 35 -46 19 -9 35 -21
35 -25 0 -15 -28 -20 -49 -9 -22 12 -38 -1 -18 -17 27 -22 56 -23 76 -3 26 26
17 56 -20 71 -17 8 -29 20 -29 31 0 21 20 25 37 8 17 -17 37 -1 22 17 -11 14
-51 18 -76 7z"/>
<path d="M2006 345 c-16 -17 -22 -78 -10 -110 9 -24 51 -37 75 -25 29 16 23
30 -13 28 -32 -3 -33 -2 -36 41 -4 49 9 64 47 54 17 -4 22 -2 19 8 -7 21 -62
23 -82 4z"/>
<path d="M2112 283 c2 -44 7 -78 13 -78 6 0 11 34 13 78 2 65 0 77 -13 77 -13
0 -15 -12 -13 -77z"/>
<path d="M2179 355 c0 -3 -1 -35 -2 -72 l0 -68 46 -3 c28 -2 47 1 47 7 0 6
-16 11 -35 11 -28 0 -35 4 -35 20 0 15 7 20 25 20 16 0 25 6 25 15 0 9 -10 15
-26 15 -19 0 -25 5 -22 17 2 12 13 17 32 18 16 0 31 6 33 13 3 8 -9 12 -41 12
-25 0 -46 -2 -47 -5z"/>
<path d="M2302 283 c2 -48 7 -76 13 -73 6 3 10 24 9 48 0 23 2 42 5 42 3 0 21
-23 39 -51 18 -27 37 -47 42 -44 6 3 10 40 10 81 0 59 -3 74 -15 74 -11 0 -15
-12 -15 -52 l0 -53 -32 53 c-47 75 -59 69 -56 -25z"/>
<path d="M2461 341 c-12 -22 -15 -80 -5 -106 9 -24 51 -37 75 -25 29 16 23 30
-13 28 l-33 -3 0 50 0 50 33 -3 c24 -2 33 2 30 10 -3 7 -21 14 -41 16 -27 2
-38 -1 -46 -17z"/>
<path d="M2570 286 l0 -76 50 0 c28 0 50 5 50 10 0 6 -16 10 -35 10 -28 0 -35
4 -35 20 0 15 7 20 25 20 16 0 25 6 25 15 0 9 -9 15 -25 15 -17 0 -25 5 -25
18 0 12 8 17 28 17 48 0 39 20 -10 23 l-48 3 0 -75z"/>
<path d="M2702 348 c-22 -22 -13 -48 23 -69 19 -12 35 -27 35 -35 0 -16 -36
-19 -45 -4 -9 15 -25 12 -25 -5 0 -26 49 -38 76 -20 35 22 30 52 -11 76 -19
12 -35 25 -35 29 0 16 20 21 41 10 26 -14 36 -6 19 15 -15 18 -61 20 -78 3z"/>
<path d="M2886 339 c-15 -22 -12 -49 7 -49 6 0 3 -6 -7 -13 -42 -31 15 -87 68
-67 18 7 26 17 26 34 0 14 5 28 10 31 19 12 -2 26 -34 24 -38 -4 -57 7 -49 26
6 18 34 20 50 4 8 -8 13 -8 17 0 22 35 -63 45 -88 10z m74 -89 c0 -15 -7 -20
-24 -20 -14 0 -28 5 -31 10 -10 16 4 30 31 30 17 0 24 -5 24 -20z"/>
<path d="M945 144 c-23 -24 -15 -55 20 -74 50 -27 35 -57 -17 -35 -13 5 -18 2
-18 -8 0 -20 53 -32 79 -17 37 19 19 65 -31 83 -10 4 -18 14 -18 23 0 13 7 15
35 10 38 -8 48 7 16 24 -28 14 -47 13 -66 -6z"/>
<path d="M1093 143 c-3 -10 -14 -40 -25 -66 -10 -26 -18 -54 -18 -62 0 -22 21
-18 27 5 7 27 47 26 66 -3 27 -40 30 -10 5 64 -25 74 -43 95 -55 62z m29 -58
c4 -20 1 -25 -14 -25 -14 0 -18 5 -14 16 3 9 6 20 6 25 0 20 18 7 22 -16z"/>
<path d="M1199 156 c-8 -8 3 -156 11 -156 5 0 10 24 12 52 l3 53 34 -53 c18
-28 37 -52 41 -52 10 0 24 135 15 149 -14 24 -24 8 -27 -41 l-3 -53 -34 53
c-31 48 -41 58 -52 48z"/>
<path d="M1366 86 c-30 -86 -30 -86 -12 -86 7 0 16 9 19 20 7 27 53 27 62 0 8
-25 25 -26 24 -2 -1 28 -43 135 -55 139 -6 2 -23 -30 -38 -71z m50 -23 c-2 -3
-11 -3 -19 -1 -11 2 -12 9 -5 28 l10 25 9 -24 c5 -13 7 -26 5 -28z"/>
<path d="M1490 81 c0 -65 3 -81 15 -81 11 0 15 11 15 37 l0 38 31 -38 c38 -46
60 -38 24 9 l-26 34 25 31 c24 28 27 49 6 49 -5 0 -19 -17 -32 -37 l-23 -38
-5 34 c-3 19 -11 36 -17 39 -10 3 -13 -17 -13 -77z"/>
<path d="M1637 86 c-14 -41 -23 -77 -19 -80 10 -11 20 -6 25 14 6 24 57 29 57
6 0 -17 16 -29 29 -22 11 7 -40 148 -56 153 -6 2 -22 -28 -36 -71z m49 -23
c-2 -3 -11 -3 -19 -1 -11 2 -12 9 -5 28 l10 25 9 -24 c5 -13 7 -26 5 -28z"/>
<path d="M1820 80 c0 -64 3 -80 15 -80 10 0 15 10 15 33 0 32 2 33 30 29 26
-4 30 -9 30 -34 0 -19 4 -28 13 -26 8 3 12 28 12 78 0 50 -4 75 -12 77 -9 3
-13 -7 -13 -31 0 -33 -2 -36 -30 -36 -28 0 -30 3 -30 35 0 24 -5 35 -15 35
-12 0 -15 -16 -15 -80z"/>
<path d="M1992 144 c-18 -12 -22 -25 -22 -64 0 -55 18 -80 56 -80 37 0 64 33
64 80 0 67 -49 99 -98 64z m66 -60 c3 -44 -14 -69 -42 -58 -11 4 -16 19 -16
48 0 49 6 58 35 54 16 -2 21 -12 23 -44z"/>
<path d="M2138 149 c-31 -17 -22 -57 17 -80 19 -12 35 -25 35 -30 0 -15 -30
-23 -43 -10 -14 14 -37 14 -37 1 0 -17 46 -33 73 -26 47 11 44 56 -4 82 -16 8
-29 22 -29 30 0 13 7 15 35 10 39 -8 42 -5 19 18 -18 18 -41 20 -66 5z"/>
<path d="M2244 146 c-10 -26 1 -139 14 -144 8 -2 12 7 12 27 0 28 3 31 30 31
34 0 55 29 45 61 -11 34 -90 54 -101 25z m71 -41 c0 -13 -8 -21 -22 -23 -19
-3 -23 1 -23 23 0 22 4 26 23 23 14 -2 22 -10 22 -23z"/>
<path d="M2379 156 c-2 -2 -3 -39 -1 -81 3 -52 7 -75 15 -72 15 5 15 149 0
154 -5 2 -11 1 -14 -1z"/>
<path d="M2434 151 c-10 -11 -2 -21 16 -21 18 0 20 -7 20 -66 0 -48 3 -65 13
-62 7 3 13 28 15 66 3 55 5 62 23 62 12 0 19 5 17 13 -4 11 -93 19 -104 8z"/>
<path d="M2595 151 c-15 -26 -53 -139 -48 -145 12 -11 22 -6 28 14 9 27 55 27
62 0 5 -20 15 -25 25 -14 8 8 -42 154 -52 154 -5 0 -11 -4 -15 -9z m25 -78 c0
-7 -7 -13 -15 -13 -16 0 -19 9 -9 35 5 13 8 14 15 3 5 -7 9 -19 9 -25z"/>
<path d="M2694 146 c-3 -7 -4 -42 -2 -77 l3 -64 43 0 c50 0 62 19 15 23 l-33
3 0 65 c0 59 -13 84 -26 50z"/>
<path d="M2816 141 c-24 -26 -13 -56 24 -71 30 -12 39 -33 20 -45 -5 -3 -19
-1 -31 5 -27 15 -39 2 -15 -16 25 -18 47 -18 71 -1 27 20 13 62 -25 75 -17 6
-30 18 -30 28 0 13 6 15 35 10 38 -8 48 7 16 24 -29 15 -46 12 -65 -9z"/>
</g>
</svg>
